<mxfile host="app.diagrams.net" modified="2024-03-15T13:53:21.618Z" agent="Mozilla/5.0 (Windows NT 10.0; Win64; x64) AppleWebKit/537.36 (KHTML, like Gecko) Chrome/122.0.0.0 Safari/537.36 Edg/122.0.0.0" etag="lxZF8vaXTWRbHMknK3V2" version="24.0.2" type="device">
  <diagram name="Page-1" id="VNZyytYpYAORsoqapi0t">
    <mxGraphModel dx="1113" dy="594" grid="1" gridSize="10" guides="1" tooltips="1" connect="1" arrows="1" fold="1" page="1" pageScale="1" pageWidth="827" pageHeight="1169" math="0" shadow="0">
      <root>
        <mxCell id="0" />
        <mxCell id="1" parent="0" />
        <mxCell id="ZVlsSS9VNs7TPI7_-VZd-1" value="Client" style="shape=umlActor;verticalLabelPosition=bottom;verticalAlign=top;html=1;outlineConnect=0;" vertex="1" parent="1">
          <mxGeometry x="40" y="320" width="40" height="70" as="geometry" />
        </mxCell>
        <mxCell id="ZVlsSS9VNs7TPI7_-VZd-31" style="edgeStyle=orthogonalEdgeStyle;rounded=0;orthogonalLoop=1;jettySize=auto;html=1;exitX=0.5;exitY=1;exitDx=0;exitDy=0;" edge="1" parent="1" source="ZVlsSS9VNs7TPI7_-VZd-2">
          <mxGeometry relative="1" as="geometry">
            <mxPoint x="524.5" y="760" as="targetPoint" />
          </mxGeometry>
        </mxCell>
        <mxCell id="ZVlsSS9VNs7TPI7_-VZd-2" value="Simulation de l&#39;écosystème" style="shape=rect;html=1;verticalAlign=top;fontStyle=1;whiteSpace=wrap;align=center;" vertex="1" parent="1">
          <mxGeometry x="240" y="24" width="570" height="836" as="geometry" />
        </mxCell>
        <mxCell id="ZVlsSS9VNs7TPI7_-VZd-3" value="Configurer l&#39;écosystème" style="ellipse;whiteSpace=wrap;html=1;" vertex="1" parent="1">
          <mxGeometry x="273" y="110" width="180" height="60" as="geometry" />
        </mxCell>
        <mxCell id="ZVlsSS9VNs7TPI7_-VZd-6" value="Modifier l&#39;écosystème" style="ellipse;whiteSpace=wrap;html=1;" vertex="1" parent="1">
          <mxGeometry x="273" y="329" width="180" height="60" as="geometry" />
        </mxCell>
        <mxCell id="ZVlsSS9VNs7TPI7_-VZd-7" value="Observer l&#39;évolution de l&#39;écosystème" style="ellipse;whiteSpace=wrap;html=1;" vertex="1" parent="1">
          <mxGeometry x="273" y="585" width="180" height="60" as="geometry" />
        </mxCell>
        <mxCell id="ZVlsSS9VNs7TPI7_-VZd-9" value="" style="edgeStyle=none;html=1;endArrow=none;verticalAlign=bottom;rounded=0;entryX=0;entryY=0.5;entryDx=0;entryDy=0;" edge="1" parent="1" target="ZVlsSS9VNs7TPI7_-VZd-3">
          <mxGeometry width="160" relative="1" as="geometry">
            <mxPoint x="88" y="358" as="sourcePoint" />
            <mxPoint x="168" y="458" as="targetPoint" />
          </mxGeometry>
        </mxCell>
        <mxCell id="ZVlsSS9VNs7TPI7_-VZd-10" value="" style="edgeStyle=none;html=1;endArrow=none;verticalAlign=bottom;rounded=0;entryX=0;entryY=0.5;entryDx=0;entryDy=0;" edge="1" parent="1" target="ZVlsSS9VNs7TPI7_-VZd-6">
          <mxGeometry width="160" relative="1" as="geometry">
            <mxPoint x="88" y="358" as="sourcePoint" />
            <mxPoint x="248" y="358" as="targetPoint" />
          </mxGeometry>
        </mxCell>
        <mxCell id="ZVlsSS9VNs7TPI7_-VZd-11" value="" style="edgeStyle=none;html=1;endArrow=none;verticalAlign=bottom;rounded=0;entryX=0;entryY=0.5;entryDx=0;entryDy=0;" edge="1" parent="1" target="ZVlsSS9VNs7TPI7_-VZd-7">
          <mxGeometry width="160" relative="1" as="geometry">
            <mxPoint x="88" y="358" as="sourcePoint" />
            <mxPoint x="248" y="389" as="targetPoint" />
          </mxGeometry>
        </mxCell>
        <mxCell id="ZVlsSS9VNs7TPI7_-VZd-12" value="Faire naître" style="ellipse;whiteSpace=wrap;html=1;" vertex="1" parent="1">
          <mxGeometry x="620" y="270" width="140" height="70" as="geometry" />
        </mxCell>
        <mxCell id="ZVlsSS9VNs7TPI7_-VZd-13" value="Tuer" style="ellipse;whiteSpace=wrap;html=1;" vertex="1" parent="1">
          <mxGeometry x="620" y="350" width="140" height="70" as="geometry" />
        </mxCell>
        <mxCell id="ZVlsSS9VNs7TPI7_-VZd-14" value="Paramétrer les capteurs" style="ellipse;whiteSpace=wrap;html=1;" vertex="1" parent="1">
          <mxGeometry x="620" y="100" width="140" height="70" as="geometry" />
        </mxCell>
        <mxCell id="ZVlsSS9VNs7TPI7_-VZd-15" value="Paramétrer les accessoires" style="ellipse;whiteSpace=wrap;html=1;" vertex="1" parent="1">
          <mxGeometry x="620" y="182" width="140" height="70" as="geometry" />
        </mxCell>
        <mxCell id="ZVlsSS9VNs7TPI7_-VZd-16" value="Modifier les comportements" style="ellipse;whiteSpace=wrap;html=1;" vertex="1" parent="1">
          <mxGeometry x="620" y="430" width="140" height="70" as="geometry" />
        </mxCell>
        <mxCell id="ZVlsSS9VNs7TPI7_-VZd-29" value="Différencier les comportements" style="ellipse;whiteSpace=wrap;html=1;" vertex="1" parent="1">
          <mxGeometry x="620" y="520" width="140" height="70" as="geometry" />
        </mxCell>
        <mxCell id="ZVlsSS9VNs7TPI7_-VZd-30" value="Voir les accessoires" style="ellipse;whiteSpace=wrap;html=1;" vertex="1" parent="1">
          <mxGeometry x="620" y="600" width="140" height="70" as="geometry" />
        </mxCell>
        <mxCell id="ZVlsSS9VNs7TPI7_-VZd-32" value="Voir les capteurs" style="ellipse;whiteSpace=wrap;html=1;" vertex="1" parent="1">
          <mxGeometry x="620" y="680" width="140" height="70" as="geometry" />
        </mxCell>
        <mxCell id="ZVlsSS9VNs7TPI7_-VZd-36" value="Avoir accès à l&#39;état de la population" style="ellipse;whiteSpace=wrap;html=1;" vertex="1" parent="1">
          <mxGeometry x="620" y="770" width="140" height="70" as="geometry" />
        </mxCell>
        <mxCell id="ZVlsSS9VNs7TPI7_-VZd-38" value="&amp;lt;&amp;lt;include&amp;gt;&amp;gt;" style="edgeStyle=none;html=1;endArrow=open;verticalAlign=bottom;dashed=1;labelBackgroundColor=none;rounded=0;exitX=1;exitY=0.5;exitDx=0;exitDy=0;" edge="1" parent="1" source="ZVlsSS9VNs7TPI7_-VZd-3">
          <mxGeometry width="160" relative="1" as="geometry">
            <mxPoint x="470" y="139.44" as="sourcePoint" />
            <mxPoint x="620" y="139" as="targetPoint" />
          </mxGeometry>
        </mxCell>
        <mxCell id="ZVlsSS9VNs7TPI7_-VZd-39" value="&amp;lt;&amp;lt;include&amp;gt;&amp;gt;" style="edgeStyle=none;html=1;endArrow=open;verticalAlign=bottom;dashed=1;labelBackgroundColor=none;rounded=0;exitX=1;exitY=0.5;exitDx=0;exitDy=0;entryX=0;entryY=0.5;entryDx=0;entryDy=0;" edge="1" parent="1" source="ZVlsSS9VNs7TPI7_-VZd-3" target="ZVlsSS9VNs7TPI7_-VZd-15">
          <mxGeometry x="0.003" width="160" relative="1" as="geometry">
            <mxPoint x="420" y="240" as="sourcePoint" />
            <mxPoint x="580" y="240" as="targetPoint" />
            <mxPoint as="offset" />
          </mxGeometry>
        </mxCell>
        <mxCell id="ZVlsSS9VNs7TPI7_-VZd-40" value="&amp;lt;&amp;lt;include&amp;gt;&amp;gt;" style="edgeStyle=none;html=1;endArrow=open;verticalAlign=bottom;dashed=1;labelBackgroundColor=none;rounded=0;entryX=0;entryY=0.5;entryDx=0;entryDy=0;exitX=1;exitY=0.5;exitDx=0;exitDy=0;" edge="1" parent="1" source="ZVlsSS9VNs7TPI7_-VZd-3" target="ZVlsSS9VNs7TPI7_-VZd-12">
          <mxGeometry width="160" relative="1" as="geometry">
            <mxPoint x="420" y="320" as="sourcePoint" />
            <mxPoint x="580" y="320" as="targetPoint" />
          </mxGeometry>
        </mxCell>
        <mxCell id="ZVlsSS9VNs7TPI7_-VZd-41" value="&amp;lt;&amp;lt;include&amp;gt;&amp;gt;" style="edgeStyle=none;html=1;endArrow=open;verticalAlign=bottom;dashed=1;labelBackgroundColor=none;rounded=0;entryX=0;entryY=0.5;entryDx=0;entryDy=0;exitX=1;exitY=0.5;exitDx=0;exitDy=0;" edge="1" parent="1" source="ZVlsSS9VNs7TPI7_-VZd-6" target="ZVlsSS9VNs7TPI7_-VZd-12">
          <mxGeometry width="160" relative="1" as="geometry">
            <mxPoint x="420" y="470" as="sourcePoint" />
            <mxPoint x="580" y="470" as="targetPoint" />
          </mxGeometry>
        </mxCell>
        <mxCell id="ZVlsSS9VNs7TPI7_-VZd-42" value="&amp;lt;&amp;lt;include&amp;gt;&amp;gt;" style="edgeStyle=none;html=1;endArrow=open;verticalAlign=bottom;dashed=1;labelBackgroundColor=none;rounded=0;entryX=0;entryY=0.5;entryDx=0;entryDy=0;exitX=1;exitY=0.5;exitDx=0;exitDy=0;" edge="1" parent="1" source="ZVlsSS9VNs7TPI7_-VZd-6" target="ZVlsSS9VNs7TPI7_-VZd-13">
          <mxGeometry width="160" relative="1" as="geometry">
            <mxPoint x="420" y="510" as="sourcePoint" />
            <mxPoint x="580" y="510" as="targetPoint" />
          </mxGeometry>
        </mxCell>
        <mxCell id="ZVlsSS9VNs7TPI7_-VZd-43" value="&amp;lt;&amp;lt;include&amp;gt;&amp;gt;" style="edgeStyle=none;html=1;endArrow=open;verticalAlign=bottom;dashed=1;labelBackgroundColor=none;rounded=0;entryX=0;entryY=0.5;entryDx=0;entryDy=0;exitX=1;exitY=0.5;exitDx=0;exitDy=0;" edge="1" parent="1" source="ZVlsSS9VNs7TPI7_-VZd-6" target="ZVlsSS9VNs7TPI7_-VZd-16">
          <mxGeometry width="160" relative="1" as="geometry">
            <mxPoint x="420" y="560" as="sourcePoint" />
            <mxPoint x="580" y="560" as="targetPoint" />
          </mxGeometry>
        </mxCell>
        <mxCell id="ZVlsSS9VNs7TPI7_-VZd-44" value="&amp;lt;&amp;lt;include&amp;gt;&amp;gt;" style="edgeStyle=none;html=1;endArrow=open;verticalAlign=bottom;dashed=1;labelBackgroundColor=none;rounded=0;entryX=0;entryY=0.5;entryDx=0;entryDy=0;exitX=1;exitY=0.5;exitDx=0;exitDy=0;" edge="1" parent="1" source="ZVlsSS9VNs7TPI7_-VZd-7" target="ZVlsSS9VNs7TPI7_-VZd-29">
          <mxGeometry width="160" relative="1" as="geometry">
            <mxPoint x="420" y="560" as="sourcePoint" />
            <mxPoint x="580" y="560" as="targetPoint" />
          </mxGeometry>
        </mxCell>
        <mxCell id="ZVlsSS9VNs7TPI7_-VZd-45" value="&amp;lt;&amp;lt;include&amp;gt;&amp;gt;" style="edgeStyle=none;html=1;endArrow=open;verticalAlign=bottom;dashed=1;labelBackgroundColor=none;rounded=0;entryX=0;entryY=0.5;entryDx=0;entryDy=0;exitX=1;exitY=0.5;exitDx=0;exitDy=0;" edge="1" parent="1" source="ZVlsSS9VNs7TPI7_-VZd-7" target="ZVlsSS9VNs7TPI7_-VZd-30">
          <mxGeometry width="160" relative="1" as="geometry">
            <mxPoint x="420" y="560" as="sourcePoint" />
            <mxPoint x="580" y="560" as="targetPoint" />
          </mxGeometry>
        </mxCell>
        <mxCell id="ZVlsSS9VNs7TPI7_-VZd-46" value="&amp;lt;&amp;lt;include&amp;gt;&amp;gt;" style="edgeStyle=none;html=1;endArrow=open;verticalAlign=bottom;dashed=1;labelBackgroundColor=none;rounded=0;entryX=0;entryY=0.5;entryDx=0;entryDy=0;exitX=1;exitY=0.5;exitDx=0;exitDy=0;" edge="1" parent="1" source="ZVlsSS9VNs7TPI7_-VZd-7" target="ZVlsSS9VNs7TPI7_-VZd-32">
          <mxGeometry width="160" relative="1" as="geometry">
            <mxPoint x="430" y="660" as="sourcePoint" />
            <mxPoint x="590" y="660" as="targetPoint" />
          </mxGeometry>
        </mxCell>
        <mxCell id="ZVlsSS9VNs7TPI7_-VZd-47" value="&amp;lt;&amp;lt;include&amp;gt;&amp;gt;" style="edgeStyle=none;html=1;endArrow=open;verticalAlign=bottom;dashed=1;labelBackgroundColor=none;rounded=0;entryX=0;entryY=0.5;entryDx=0;entryDy=0;exitX=1;exitY=0.5;exitDx=0;exitDy=0;" edge="1" parent="1" source="ZVlsSS9VNs7TPI7_-VZd-7" target="ZVlsSS9VNs7TPI7_-VZd-36">
          <mxGeometry width="160" relative="1" as="geometry">
            <mxPoint x="370" y="760" as="sourcePoint" />
            <mxPoint x="530" y="760" as="targetPoint" />
          </mxGeometry>
        </mxCell>
      </root>
    </mxGraphModel>
  </diagram>
</mxfile>
